<svg width="760" height="146" viewBox="0 0 760 146" fill="none" xmlns="http://www.w3.org/2000/svg">
<style type="text/css">
.count{opacity:0;}
.countLabel{opacity:0;}
</style>
<g id="Group 16049">
<g id="Group 16039">
<g id="Group 16027">
<path id="Vector" d="M646.53 95.1657C644.73 72.5857 626.36 54.3457 603.77 52.6957C590.8 51.7457 578.85 56.1657 569.9 63.9557C563.9 69.1757 555.36 70.3257 548.1 67.0757C540.71 63.7657 536.07 56.4457 535.89 48.3457C535.87 47.4857 535.83 46.6157 535.76 45.7457C534.01 22.9457 515.36 4.55574 492.53 3.09574C465.59 1.38574 443.13 22.8057 443.13 49.3857V49.5057C443.13 56.8657 438.82 63.5357 432.1 66.5457L429.64 67.6457C423.08 70.5757 415.3 69.5657 410 64.7157C406.54 61.5457 402.59 58.9057 398.28 56.8957C398.23 56.8757 398.19 56.8557 398.14 56.8357C397.66 56.6157 397.18 56.4057 396.69 56.1957C396.51 56.1157 396.32 56.0357 396.14 55.9657C395.76 55.8157 395.38 55.6657 394.99 55.5257C394.69 55.4157 394.39 55.2957 394.09 55.1957C393.79 55.0957 393.49 54.9957 393.19 54.8957C392.8 54.7657 392.4 54.6357 392 54.5157C391.77 54.4457 391.53 54.3757 391.3 54.3157C390.83 54.1857 390.36 54.0557 389.88 53.9357C389.69 53.8857 389.51 53.8457 389.32 53.8057C388.8 53.6857 388.28 53.5657 387.75 53.4657C387.58 53.4357 387.42 53.4057 387.25 53.3657C386.71 53.2657 386.17 53.1757 385.63 53.0957C385.45 53.0657 385.27 53.0457 385.1 53.0157C384.58 52.9457 384.06 52.8857 383.54 52.8257C383.31 52.8057 383.09 52.7757 382.86 52.7557C382.65 52.7357 382.43 52.7057 382.22 52.6957C382 52.6757 381.78 52.6757 381.56 52.6657C381.17 52.6457 380.78 52.6257 380.39 52.6057C380.02 52.5957 379.66 52.5857 379.29 52.5757C379.1 52.5757 378.92 52.5657 378.73 52.5657C378.48 52.5657 378.24 52.5757 377.99 52.5857C377.67 52.5857 377.35 52.5957 377.03 52.6057C376.56 52.6257 376.09 52.6457 375.62 52.6857C375.34 52.7057 375.06 52.7157 374.79 52.7457C374.26 52.7857 373.74 52.8457 373.22 52.9057C373 52.9357 372.79 52.9557 372.57 52.9857C371.93 53.0757 371.29 53.1757 370.66 53.2857C370.57 53.3057 370.47 53.3157 370.38 53.3357C368.12 53.7457 365.92 54.3257 363.78 55.0557H363.76C363.07 55.2957 362.38 55.5457 361.7 55.8157C361.65 55.8357 361.59 55.8557 361.54 55.8857C360.91 56.1357 360.28 56.4057 359.66 56.6857C359.59 56.7157 359.52 56.7457 359.45 56.7857C358.84 57.0657 358.24 57.3557 357.65 57.6657C357.59 57.6957 357.52 57.7357 357.46 57.7657C356.86 58.0757 356.26 58.4057 355.67 58.7457C355.63 58.7757 355.58 58.7957 355.54 58.8257C354.92 59.1857 354.31 59.5557 353.71 59.9457C353.71 59.9457 353.69 59.9557 353.68 59.9657C351.75 61.2057 349.91 62.5857 348.19 64.0957C347.95 64.3057 347.71 64.4957 347.47 64.6857C341.53 69.2857 333.47 70.1857 326.56 67.0957C319.17 63.7857 314.53 56.4657 314.35 48.3657C314.33 47.5057 314.29 46.6357 314.22 45.7657C313.36 34.5457 308.4 24.3957 300.87 16.8057C300.87 16.8057 300.86 16.7957 300.85 16.7857C300.42 16.3457 299.97 15.9257 299.52 15.5057C299.46 15.4557 299.41 15.3957 299.35 15.3457C298.94 14.9757 298.53 14.6057 298.11 14.2457C298 14.1557 297.9 14.0557 297.79 13.9657C297.42 13.6457 297.03 13.3457 296.65 13.0357C296.49 12.9057 296.34 12.7857 296.18 12.6557C295.83 12.3857 295.48 12.1357 295.13 11.8757C294.92 11.7257 294.72 11.5757 294.51 11.4257C294.19 11.2057 293.87 10.9857 293.55 10.7757C293.3 10.6057 293.05 10.4357 292.79 10.2757C292.5 10.0857 292.2 9.90574 291.9 9.72574C291.61 9.54574 291.32 9.36574 291.02 9.19574C290.75 9.03574 290.47 8.88574 290.19 8.73574C289.86 8.55574 289.54 8.37574 289.21 8.20574C288.95 8.06574 288.68 7.93574 288.42 7.80574C288.07 7.62574 287.72 7.45574 287.36 7.28574C287.11 7.16574 286.85 7.05574 286.6 6.94574C286.23 6.77574 285.85 6.61574 285.47 6.45574C285.22 6.35574 284.97 6.25574 284.71 6.15574C284.32 6.00574 283.94 5.85574 283.54 5.71574C283.28 5.62574 283.02 5.53574 282.76 5.44574C282.37 5.31574 281.98 5.18574 281.58 5.05574C281.31 4.97574 281.04 4.89574 280.77 4.81574C280.38 4.70574 279.99 4.58574 279.59 4.48574C279.3 4.41574 279.01 4.34574 278.72 4.27574C278.34 4.18574 277.96 4.09574 277.57 4.01574C277.26 3.94574 276.95 3.89574 276.63 3.83574C276.26 3.76574 275.89 3.69574 275.52 3.63574C275.18 3.57574 274.84 3.53574 274.5 3.48574C274.15 3.43574 273.8 3.38574 273.45 3.34574C273.08 3.30574 272.71 3.26574 272.34 3.23574C272.12 3.21574 271.9 3.18574 271.68 3.16574C271.59 3.16574 271.49 3.16574 271.4 3.15574C271.25 3.14574 271.11 3.12574 270.96 3.11574C270.58 3.09574 270.21 3.08574 269.83 3.07574C269.47 3.06574 269.11 3.04574 268.75 3.03574C268.26 3.03574 267.78 3.03574 267.3 3.03574C266.92 3.03574 266.55 3.03574 266.17 3.05574C265.72 3.07574 265.28 3.10574 264.83 3.13574C264.43 3.16574 264.02 3.18574 263.62 3.21574C263.24 3.25574 262.86 3.30574 262.48 3.34574C262.03 3.39574 261.57 3.44574 261.12 3.51574C260.94 3.54574 260.76 3.58574 260.57 3.60574C258.43 3.94574 256.35 4.43574 254.32 5.05574C254.24 5.07574 254.17 5.09574 254.09 5.12574C253.47 5.31574 252.85 5.53574 252.24 5.75574C252.1 5.80574 251.96 5.85574 251.81 5.90574C251.22 6.12574 250.64 6.36574 250.07 6.60574C249.91 6.67574 249.76 6.73574 249.6 6.79574C249.03 7.04574 248.47 7.30574 247.91 7.57574C247.76 7.64574 247.6 7.71574 247.45 7.79574C246.89 8.06574 246.35 8.35574 245.8 8.65574C245.65 8.73574 245.5 8.81574 245.36 8.89574C244.82 9.19574 244.28 9.51574 243.75 9.84574C243.61 9.92574 243.47 10.0157 243.34 10.0957C242.81 10.4257 242.28 10.7757 241.76 11.1357C241.64 11.2157 241.51 11.3057 241.39 11.3857C240.87 11.7557 240.35 12.1357 239.84 12.5157C239.73 12.5957 239.63 12.6757 239.52 12.7657C239 13.1657 238.49 13.5757 238 14.0057C237.91 14.0757 237.83 14.1557 237.74 14.2257C237.23 14.6657 236.73 15.1157 236.23 15.5757C236.17 15.6357 236.1 15.6957 236.04 15.7557C235.53 16.2357 235.03 16.7257 234.55 17.2357C234.51 17.2757 234.48 17.3157 234.44 17.3557C233.93 17.8857 233.43 18.4257 232.95 18.9857C232.95 18.9857 232.95 18.9957 232.94 19.0057C225.82 27.1857 221.52 37.8757 221.56 49.5557C221.56 56.9057 217.24 63.5657 210.53 66.5757L208.07 67.6757C201.51 70.6057 193.73 69.5957 188.43 64.7457C180.18 57.2057 169.2 52.5957 157.16 52.5957C145.12 52.5957 134.78 56.9457 126.62 64.1057C120.77 69.2357 112.47 70.4557 105.37 67.2857L105.03 67.1357C97.5704 63.7957 92.9305 56.4757 92.7505 48.3757C92.7305 47.6057 92.7004 46.8357 92.6404 46.0557C91.0404 23.3857 72.7705 4.94574 50.1405 3.15574C21.6105 0.895743 -2.11955 24.6357 0.150454 53.1757C1.95045 75.7557 20.3205 93.9957 42.9105 95.6557C55.8805 96.6057 67.8405 92.1857 76.7905 84.3957C82.7905 79.1757 91.3304 78.0257 98.5904 81.2757C105.98 84.5857 110.62 91.9057 110.8 100.006C110.84 101.616 110.95 103.236 111.16 104.876C113.78 125.896 130.8 142.676 151.85 145.036C179.8 148.166 203.56 126.286 203.56 98.9457V98.8257C203.56 91.4657 207.87 84.7957 214.59 81.7857L217.05 80.6857C223.61 77.7557 231.39 78.7657 236.69 83.6157C240.15 86.7857 244.1 89.4257 248.4 91.4257C248.45 91.4457 248.49 91.4657 248.54 91.4957C249.02 91.7157 249.51 91.9257 249.99 92.1357C250.17 92.2157 250.35 92.2957 250.53 92.3657C250.91 92.5257 251.3 92.6657 251.69 92.8157C251.99 92.9257 252.28 93.0357 252.58 93.1457C252.88 93.2557 253.18 93.3457 253.48 93.4457C253.87 93.5757 254.27 93.7057 254.66 93.8257C254.9 93.8957 255.13 93.9657 255.37 94.0257C255.84 94.1557 256.31 94.2857 256.78 94.4057C256.97 94.4557 257.16 94.4957 257.35 94.5457C257.87 94.6657 258.39 94.7857 258.91 94.8857C259.08 94.9157 259.25 94.9557 259.42 94.9857C259.96 95.0857 260.5 95.1757 261.04 95.2557C261.22 95.2857 261.39 95.3057 261.57 95.3357C262.09 95.4057 262.61 95.4657 263.13 95.5257C263.36 95.5457 263.58 95.5757 263.81 95.5957C264.02 95.6157 264.23 95.6457 264.44 95.6557C264.66 95.6757 264.88 95.6757 265.1 95.6857C265.49 95.7057 265.89 95.7257 266.28 95.7457C266.65 95.7557 267.01 95.7657 267.37 95.7757C267.56 95.7757 267.74 95.7857 267.93 95.7857C268.18 95.7857 268.43 95.7757 268.69 95.7657C269 95.7657 269.31 95.7657 269.61 95.7457C270.09 95.7257 270.57 95.6957 271.05 95.6657C271.32 95.6457 271.58 95.6357 271.84 95.6157C272.39 95.5657 272.94 95.5057 273.48 95.4457C273.67 95.4257 273.86 95.4057 274.05 95.3757C276.32 95.0757 278.53 94.6057 280.69 93.9957C280.73 93.9857 280.76 93.9757 280.79 93.9657C281.47 93.7657 282.14 93.5557 282.8 93.3357C282.89 93.3057 282.97 93.2757 283.06 93.2457C283.68 93.0357 284.29 92.8057 284.89 92.5657C284.99 92.5257 285.08 92.4857 285.18 92.4457C285.78 92.2057 286.37 91.9557 286.95 91.6857C287.04 91.6457 287.12 91.6057 287.21 91.5657C287.81 91.2857 288.41 90.9957 289 90.6957C289.06 90.6657 289.12 90.6357 289.17 90.6057C289.81 90.2757 290.44 89.9357 291.06 89.5757C291.06 89.5757 291.06 89.5757 291.07 89.5757C293.58 88.1257 295.95 86.4457 298.14 84.5657C303.36 80.0757 310.37 78.4657 316.88 80.1457C317.98 80.4357 319.06 80.7957 320.11 81.2757C327.5 84.5857 332.14 91.9057 332.32 100.006C332.36 101.616 332.47 103.236 332.68 104.876C332.73 105.276 332.82 105.656 332.88 106.056C332.95 106.506 333.02 106.956 333.11 107.406C333.31 108.496 333.55 109.566 333.82 110.626C333.85 110.736 333.88 110.846 333.9 110.956C337.61 124.846 347.69 136.206 360.76 141.716C360.82 141.746 360.89 141.776 360.95 141.796C361.65 142.086 362.36 142.366 363.07 142.616C363.68 142.836 364.29 143.046 364.9 143.236C365.4 143.396 365.91 143.546 366.42 143.676C367.26 143.906 368.11 144.116 368.97 144.306C369.33 144.386 369.7 144.456 370.07 144.526C371.08 144.716 372.1 144.876 373.13 145.006C373.21 145.006 373.29 145.036 373.37 145.046C373.61 145.076 373.84 145.086 374.08 145.106C374.37 145.136 374.66 145.176 374.95 145.196C375.11 145.206 375.26 145.206 375.42 145.216C375.9 145.246 376.38 145.276 376.86 145.286C377.27 145.306 377.67 145.316 378.07 145.326C378.52 145.326 378.97 145.326 379.42 145.326C379.84 145.326 380.27 145.316 380.69 145.296C381.11 145.276 381.52 145.246 381.94 145.216C382.38 145.186 382.83 145.156 383.27 145.116C383.65 145.076 384.03 145.026 384.4 144.986C384.87 144.926 385.34 144.866 385.8 144.796C386.14 144.746 386.48 144.676 386.82 144.616C387.31 144.526 387.81 144.436 388.3 144.336C388.6 144.276 388.89 144.196 389.18 144.136C389.7 144.016 390.22 143.896 390.74 143.756C390.99 143.686 391.23 143.616 391.47 143.546C392.02 143.386 392.58 143.226 393.12 143.046C393.31 142.986 393.5 142.916 393.68 142.846C394.27 142.646 394.87 142.436 395.45 142.206C395.57 142.156 395.69 142.106 395.81 142.056C396.45 141.796 397.09 141.536 397.72 141.246C397.76 141.226 397.79 141.216 397.82 141.196C413.92 133.876 425.12 117.626 425.07 98.8057C425.07 91.4557 429.39 84.7957 436.1 81.7957L438.56 80.6957C445.12 77.7657 452.9 78.7757 458.2 83.6257C466.45 91.1657 477.43 95.7757 489.46 95.7757C501.49 95.7757 511.55 91.5457 519.67 84.5657C525.77 79.3157 534.32 77.9857 541.66 81.2757C549.05 84.5857 553.69 91.9057 553.87 100.006C553.89 100.866 553.93 101.736 554 102.616C555.74 125.136 573.96 143.406 596.48 145.196C625.02 147.456 648.76 123.716 646.48 95.1757L646.53 95.1657Z" fill="#476EA5"/>
<g id="Group">
<path id="Vector_2" d="M80.5548 50.7249C82.0896 31.8549 68.0367 15.3135 49.1666 13.7787C30.2966 12.2439 13.7553 26.2968 12.2204 45.1668C10.6856 64.0368 24.7386 80.5782 43.6086 82.113C62.4786 83.6478 79.02 69.5949 80.5548 50.7249Z" fill="#7BAAF3"/>
<path id="Vector_3" d="M55.1924 38.8074C52.737 36.3521 49.4724 34.9998 46 34.9998C42.5276 34.9998 39.263 36.3521 36.8076 38.8074C34.3523 41.2627 33 44.5274 33 47.9998C33 50.9639 33.9861 53.7758 35.8013 56.063C35.6064 56.3011 35.489 56.6048 35.489 56.9359C35.489 57.6961 36.1077 58.3149 36.868 58.3149C37.1883 58.3149 37.4835 58.2049 37.7179 58.0207C40.0435 59.9491 42.9409 60.9998 46 60.9998C49.4724 60.9998 52.737 59.6474 55.1924 57.1921C57.6477 54.7368 59 51.4721 59 47.9998C59 44.5274 57.6477 41.2627 55.1924 38.8074ZM37.3677 56.205C37.2844 56.1948 37.1979 56.1938 37.1103 56.2023C36.5642 56.2546 36.1179 56.6855 36.0453 57.229C36.0324 57.3235 36.0319 57.4158 36.041 57.5055C35.9289 57.3432 35.8627 57.1473 35.8627 56.9353C35.8627 56.3812 36.3138 55.93 36.868 55.93C37.1771 55.93 37.4536 56.0704 37.6384 56.2909C37.5561 56.2471 37.4654 56.2167 37.3677 56.205ZM45.8131 56.7506C45.0283 56.7324 44.2414 56.6081 43.4694 56.3747C39.7563 55.2525 37.334 51.8699 37.2529 48.1866H41.02C41.0472 48.9351 41.2453 49.6729 41.6094 50.3526C42.2377 51.5255 43.2852 52.3829 44.5591 52.7678C44.9723 52.8928 45.393 52.9627 45.8131 52.9793V56.7506ZM45.8131 52.6039C45.4293 52.5879 45.0449 52.5244 44.6674 52.4101C43.4892 52.054 42.5207 51.2607 41.9393 50.1759C41.6046 49.5517 41.4225 48.8737 41.3953 48.1866H44.077C44.1512 48.9426 44.6701 49.6169 45.4416 49.8502C45.5654 49.8876 45.6898 49.9105 45.8137 49.9228V52.6039H45.8131ZM45.8131 49.5475C45.7251 49.5368 45.637 49.5192 45.5489 49.4925C44.9392 49.3083 44.5249 48.7819 44.4523 48.1871H45.8126V49.5475H45.8131ZM45.8131 47.8129H44.4523C44.463 47.7248 44.4811 47.6367 44.5073 47.5486C44.6861 46.956 45.2088 46.5273 45.8131 46.4526V47.8129ZM45.8131 46.0762C45.0449 46.152 44.3759 46.6917 44.1496 47.4408C44.1122 47.5646 44.0882 47.689 44.0759 47.8129H41.3947C41.4108 47.429 41.4754 47.0446 41.5891 46.6672C41.9452 45.4889 42.7385 44.5205 43.8234 43.9391C44.4475 43.6043 45.1255 43.4223 45.8126 43.395V46.0762H45.8131ZM45.8131 43.0202C45.0646 43.0475 44.3268 43.2455 43.6472 43.6097C42.4748 44.238 41.6168 45.2855 41.2319 46.5593C41.107 46.9726 41.037 47.3933 41.021 47.8134H37.2524C37.2641 47.2502 37.3314 46.6811 37.4574 46.1136C37.4771 46.1146 37.4969 46.1168 37.5172 46.1168C38.152 46.1168 38.6682 45.6005 38.6682 44.9657C38.6682 44.5861 38.483 44.2498 38.1984 44.04C39.0008 42.4517 40.2656 41.1474 41.8672 40.2894C43.1037 39.6269 44.4501 39.2777 45.8131 39.25V43.0202ZM36.852 45.2022C36.845 45.2529 36.8429 45.3026 36.8439 45.3517C36.7783 45.2375 36.7398 45.1061 36.7398 44.9652C36.7398 44.5365 37.0885 44.1878 37.5172 44.1878C37.7264 44.1878 37.9165 44.2717 38.0564 44.4067C38.0137 44.3913 37.9683 44.38 37.9213 44.3747C37.854 44.3667 37.7841 44.3656 37.7131 44.3726C37.2716 44.4137 36.9107 44.7623 36.852 45.2022ZM45.8131 38.8752C44.3893 38.903 42.9825 39.2671 41.691 39.959C40.0221 40.8532 38.7018 42.212 37.8653 43.8675C37.7553 43.8328 37.6389 43.8136 37.5177 43.8136C36.8829 43.8136 36.3667 44.3299 36.3667 44.9646C36.3667 45.4494 36.6683 45.8642 37.0927 46.0335C36.9614 46.6271 36.8909 47.223 36.8792 47.8124H34.6422C34.5392 47.8124 34.4554 47.8962 34.4554 47.9992C34.4554 48.1023 34.5392 48.1861 34.6422 48.1861H36.8797C36.9609 52.0295 39.4872 55.5611 43.3616 56.7319C44.1688 56.9759 44.9926 57.1056 45.8131 57.1238V60.6234C42.9206 60.5817 40.1866 59.5727 37.9795 57.7506C38.1477 57.5221 38.2475 57.2402 38.2475 56.9353C38.2475 56.1751 37.6287 55.5563 36.8685 55.5563C36.5738 55.5563 36.301 55.6492 36.0768 55.8072C34.3251 53.5906 33.3737 50.8683 33.3737 47.9998C33.3737 44.6272 34.6871 41.4565 37.0719 39.0717C39.4124 36.7311 42.5106 35.4237 45.8131 35.3756V38.8752ZM48.7441 50.895C48.1692 50.895 47.7015 51.3627 47.7015 51.9377C47.7015 52.0498 47.7196 52.1582 47.7527 52.2591C47.2503 52.4667 46.7218 52.5821 46.1869 52.6034V49.9223C46.9428 49.8475 47.6171 49.3291 47.8504 48.5577C47.8873 48.4354 47.9108 48.3105 47.923 48.1855H50.6047C50.5887 48.5699 50.5246 48.9543 50.4109 49.3313C50.2064 50.0082 49.8573 50.6152 49.3917 51.1203C49.2129 50.9804 48.9887 50.895 48.7441 50.895ZM49.1761 51.4278C49.152 51.4214 49.128 51.4166 49.1029 51.4134C49.0431 51.4064 48.9812 51.4054 48.9182 51.4113C48.5263 51.4486 48.206 51.7577 48.1537 52.1485C48.1499 52.1784 48.1478 52.2083 48.1467 52.2377C48.1014 52.1475 48.0752 52.046 48.0752 51.9382C48.0752 51.5693 48.3752 51.2692 48.7441 51.2692C48.9086 51.2687 49.0591 51.329 49.1761 51.4278ZM47.4927 48.4509C47.3085 49.0606 46.7821 49.4743 46.1869 49.5475V48.1866H47.5472C47.5365 48.2752 47.5189 48.3639 47.4927 48.4509ZM46.1869 52.9793C46.7832 52.9574 47.3731 52.8266 47.9321 52.5901C48.1232 52.8276 48.4163 52.9803 48.7441 52.9803C49.3191 52.9803 49.7868 52.5127 49.7868 51.9377C49.7868 51.7423 49.7318 51.5602 49.6379 51.4032C50.1552 50.8517 50.5428 50.1849 50.7681 49.4396C50.8925 49.0269 50.9619 48.6062 50.9784 48.1855H54.745C54.729 48.972 54.6072 49.7605 54.375 50.5293C53.6991 52.7662 52.1925 54.606 50.1328 55.7101C48.8963 56.3726 47.5499 56.7218 46.1869 56.7495V52.9793ZM53.2763 45.2935C53.1508 45.1184 53.0761 44.9043 53.0761 44.6731C53.0761 44.0837 53.5555 43.6038 54.1454 43.6038C54.4823 43.6038 54.7829 43.7607 54.9793 44.0053C54.887 43.9524 54.7834 43.9166 54.6724 43.9033C54.5843 43.8926 54.4935 43.8915 54.4011 43.9006C53.8256 43.9556 53.3558 44.4094 53.2789 44.9823C53.264 45.089 53.2645 45.1931 53.2763 45.2935ZM55.588 44.6731C55.588 43.8777 54.9409 43.2301 54.1449 43.2301C54.0258 43.2301 53.91 43.245 53.7989 43.2722C53.6238 42.9823 53.4332 42.6999 53.2245 42.4287C53.1615 42.347 53.044 42.3315 52.9623 42.3945C52.8807 42.4575 52.8652 42.575 52.9282 42.6567C53.1156 42.9001 53.2875 43.1521 53.4466 43.411C53.0029 43.6577 52.7018 44.1307 52.7018 44.6731C52.7018 45.4686 53.3489 46.1162 54.1449 46.1162C54.2773 46.1162 54.4054 46.0981 54.5271 46.0644C54.6574 46.6378 54.73 47.224 54.7428 47.8129H50.9779C50.9443 46.9053 50.6618 46.0148 50.144 45.2369C50.0869 45.151 49.9705 45.128 49.8851 45.1851C49.7991 45.2423 49.7761 45.3581 49.8333 45.4441C50.3095 46.1595 50.5706 46.9784 50.6042 47.8129H47.9236C47.9097 47.6736 47.8814 47.5353 47.8371 47.3997C47.8051 47.3014 47.6993 47.2481 47.6011 47.2801C47.5029 47.3121 47.4495 47.4178 47.4815 47.5161C47.5136 47.6132 47.5344 47.7125 47.5467 47.8129H46.2509L46.268 47.7558L55.3509 39.5148C57.4261 41.7966 58.5793 44.7148 58.6241 47.8129H55.1176C55.1037 47.1733 55.0226 46.538 54.8768 45.9166C55.3018 45.6651 55.588 45.2022 55.588 44.6731ZM46.1869 35.3756C47.3139 35.3916 48.4169 35.555 49.4745 35.8556L48.4596 39.2153C47.71 39.0049 46.9476 38.8917 46.1874 38.8752V35.3756H46.1869ZM46.1869 39.2489C46.9108 39.2655 47.6369 39.3733 48.3512 39.573L47.261 43.1815C46.906 43.0881 46.5462 43.0347 46.1869 43.0208V39.2489ZM46.1869 43.395C46.5099 43.4089 46.8334 43.457 47.1526 43.5397L46.1869 46.7355V43.395ZM54.9281 56.9278C52.5876 59.2684 49.4894 60.5759 46.1869 60.6239V57.1243C47.6107 57.0966 49.0175 56.733 50.309 56.0405C52.4568 54.8895 54.028 52.9713 54.7327 50.6382C54.9756 49.8342 55.1027 49.0093 55.1182 48.1866H58.6236C58.5766 51.4892 57.2686 54.5873 54.9281 56.9278Z" fill="white"/>
</g>
<g id="Group_2" opacity="0.8">
<path id="Vector_4" d="M157.28 133.56C176.212 133.56 191.56 118.212 191.56 99.28C191.56 80.3477 176.212 65 157.28 65C138.348 65 123 80.3477 123 99.28C123 118.212 138.348 133.56 157.28 133.56Z" fill="#7BAAF3"/>
</g>
<g id="Group_3">
<path id="Vector_5" d="M301.801 55.9307C304.867 37.2483 292.208 19.6177 273.525 16.5517C254.843 13.4856 237.212 26.1452 234.146 44.8276C231.08 63.51 243.74 81.1406 262.422 84.2066C281.105 87.2727 298.735 74.6131 301.801 55.9307Z" fill="#7BAAF3"/>
<g id="Group 16035">
<g id="box">
<g id="Layer_2">
<path id="Vector_6" d="M255.406 41.9692V59.2503L268 62.6084L280.594 59.2503V41.9692L268 38.6104L255.406 41.9692ZM278.611 42.2812L268.001 45.1112L257.389 42.2812L268 39.4521L278.611 42.2812ZM279.781 44.527L268.406 47.6949V45.8432L279.781 42.8102V44.527ZM256.219 42.8102L267.594 45.844V47.7063L256.219 44.7813V42.8102ZM256.219 45.6198L267.594 48.5448V61.6585L256.219 58.6255V45.6198ZM268.406 61.6585V48.5383L279.781 45.3695V58.6255L268.406 61.6585Z" fill="white" stroke="white" stroke-width="0.3"/>
<path id="Vector_7" d="M273.571 59.4412L278.888 58.0542V54.8635L273.571 56.2513V59.4412ZM274.384 56.8793L278.076 55.9157V57.4261L274.384 58.3898V56.8793Z" fill="white"/>
<path id="Vector_8" d="M257.606 56.1165L257.801 55.3275L262.96 56.6026L262.765 57.3916L257.606 56.1165Z" fill="white"/>
<path id="Vector_9" d="M257.606 57.8745L257.801 57.0856L265.072 58.8827L264.877 59.6716L257.606 57.8745Z" fill="white"/>
</g>
</g>
</g>
</g>
<g id="Group_4">
<path id="Vector_10" d="M523.372 53.9307C526.438 35.2483 513.779 17.6177 495.096 14.5517C476.414 11.4856 458.783 24.1452 455.717 42.8276C452.651 61.51 465.311 79.1406 483.993 82.2066C502.675 85.2727 520.306 72.6131 523.372 53.9307Z" fill="#7BAAF3"/>
<path id="Vector_11" d="M503.322 48.4363L501.141 44.8003C501.068 44.6985 500.97 44.6185 500.846 44.5894L495.617 43.4525C495.979 42.6858 496.188 41.8327 496.188 40.9298C496.188 37.66 493.528 35 490.258 35C486.989 35 484.328 37.66 484.328 40.9298C484.328 41.8327 484.537 42.6858 484.9 43.4525L479.67 44.5894C479.547 44.6183 479.449 44.6986 479.376 44.8003L477.194 48.4363C476.754 49.1309 477.096 50.1339 477.869 50.4146L479.311 50.9787V55.8159C479.311 56.3831 479.652 56.8834 480.181 57.0903L490.092 60.9686C490.199 61.0105 490.318 61.0105 490.424 60.9686L500.336 57.0903C500.864 56.8834 501.206 56.3831 501.206 55.8159V50.9787L502.647 50.4146C503.42 50.1339 503.762 49.1309 503.322 48.4363ZM490.258 35.9123C493.025 35.9123 495.276 38.1631 495.276 40.9298C495.276 43.6965 493.025 45.9474 490.258 45.9474C487.492 45.9474 485.241 43.6965 485.241 40.9298C485.241 38.1631 487.492 35.9123 490.258 35.9123ZM485.373 44.2833C486.443 45.8375 488.233 46.8596 490.258 46.8596C492.284 46.8596 494.074 45.8375 495.144 44.2832L499.178 45.1603L490.258 48.6506L481.339 45.1603L485.373 44.2833ZM478.201 49.5651C477.944 49.4722 477.829 49.1371 477.977 48.9056L479.96 45.6004L489.589 49.3684L487.527 52.806C487.412 52.9975 487.178 53.077 486.97 52.9962L478.201 49.5651ZM489.802 59.8756L480.513 56.2408C480.337 56.1718 480.223 56.005 480.223 55.8159V51.3357L486.637 53.8456C487.248 54.088 487.964 53.8548 488.309 53.2755L489.802 50.7872V59.8756ZM500.293 55.8159C500.293 56.005 500.18 56.1718 500.004 56.2408L490.714 59.8756V50.7872L492.207 53.2755C492.553 53.8548 493.268 54.088 493.879 53.8456L500.293 51.3357V55.8159ZM502.315 49.5651L493.547 52.9962C493.339 53.077 493.104 52.9975 492.99 52.806L490.927 49.3684L500.557 45.6004L502.54 48.9056C502.688 49.1371 502.572 49.4722 502.315 49.5651ZM493.735 38.383C493.218 37.8658 492.316 37.8662 491.8 38.383L489.533 40.6494L488.636 39.887C488.084 39.3992 487.171 39.4734 486.706 40.0438C486.218 40.6189 486.289 41.4842 486.863 41.9728L488.723 43.5522C488.97 43.762 489.284 43.8776 489.608 43.8776C489.974 43.8776 490.318 43.735 490.576 43.4767L493.735 40.3182C494.265 39.8087 494.266 38.8923 493.735 38.383ZM493.09 39.673L489.931 42.8319C489.769 42.9936 489.489 43.0056 489.313 42.8568L487.454 41.2775C487.262 41.1147 487.239 40.8263 487.402 40.6345C487.557 40.4445 487.861 40.4192 488.045 40.5821L489.263 41.6169C489.444 41.7704 489.713 41.7597 489.881 41.5918L492.445 39.0277C492.617 38.8558 492.917 38.8554 493.09 39.0282C493.267 39.1977 493.266 39.5033 493.09 39.673Z" fill="white"/>
</g>
<g id="Group_5">
<path id="Vector_12" d="M378.74 133.56C397.673 133.56 413.02 118.212 413.02 99.28C413.02 80.3477 397.673 65 378.74 65C359.808 65 344.46 80.3477 344.46 99.28C344.46 118.212 359.808 133.56 378.74 133.56Z" fill="#7BAAF3"/>
<g id="Group 16044">
<g id="Layer_x0020_1">
<g id="_195284368">
<g id="Group_6">
<g id="_195283456">
<path id="Vector_13" fill-rule="evenodd" clip-rule="evenodd" d="M390.602 108.336H367.398C365.523 108.336 364 106.812 364 104.938C364 104.762 364.176 104.586 364.352 104.586H393.648C393.824 104.586 394 104.762 394 104.938C394 106.812 392.477 108.336 390.602 108.336ZM364.703 105.289C364.879 106.637 366.051 107.633 367.398 107.633H390.602C391.949 107.633 393.121 106.637 393.297 105.289H364.703Z" fill="white" stroke="white" stroke-width="0.3"/>
</g>
<g id="_195282832">
<path id="Vector_14" fill-rule="evenodd" clip-rule="evenodd" d="M390.895 105.289H367.105C366.93 105.289 366.754 105.113 366.754 104.938V89.3516C366.754 89.1172 366.93 89 367.105 89H390.895C391.07 89 391.246 89.1172 391.246 89.3516V104.938C391.246 105.113 391.07 105.289 390.895 105.289ZM367.457 104.586H390.543V89.7031H367.457V104.586Z" fill="white" stroke="white" stroke-width="0.3"/>
</g>
<g id="_195284080">
<path id="Vector_15" fill-rule="evenodd" clip-rule="evenodd" d="M382.926 106.812H375.016C374.84 106.812 374.664 106.637 374.664 106.461C374.664 106.285 374.84 106.109 375.016 106.109H382.926C383.102 106.109 383.277 106.285 383.277 106.461C383.277 106.637 383.102 106.812 382.926 106.812Z" fill="white"/>
</g>
</g>
</g>
</g>
<g id="Group 16043">
<g id="skull" clip-path="url(#clip0_1295_1607)">
<g id="Group_7">
<g id="Group_8">
<path id="Vector_16" d="M379.952 99.5405L379.249 98.8373C379.112 98.7001 378.889 98.7001 378.752 98.8373L378.049 99.5405C377.828 99.761 377.984 100.141 378.297 100.141H379.703C380.015 100.141 380.173 99.7618 379.952 99.5405Z" fill="white"/>
</g>
</g>
<g id="Group_9">
<g id="Group_10">
<path id="Vector_17" d="M376.891 95.2188C375.921 95.2188 375.133 96.0073 375.133 96.9766C375.133 97.9458 375.921 98.7344 376.891 98.7344C377.86 98.7344 378.648 97.9459 378.648 96.9766C378.648 96.0073 377.86 95.2188 376.891 95.2188ZM376.891 98.036C376.309 98.036 375.831 97.5581 375.831 96.9766C375.831 96.395 376.309 95.9172 376.891 95.9172C377.472 95.9172 377.95 96.395 377.95 96.9766C377.95 97.5581 377.472 98.036 376.891 98.036Z" fill="white"/>
</g>
</g>
<g id="Group_11">
<g id="Group_12">
<path id="Vector_18" d="M381.109 95.2188C380.14 95.2188 379.352 96.0073 379.352 96.9766C379.352 97.9458 380.14 98.7344 381.109 98.7344C382.079 98.7344 382.867 97.9459 382.867 96.9766C382.867 96.0073 382.079 95.2188 381.109 95.2188ZM381.109 98.036C380.528 98.036 380.05 97.5581 380.05 96.9766C380.05 96.395 380.528 95.9172 381.109 95.9172C381.691 95.9172 382.169 96.395 382.169 96.9766C382.169 97.5581 381.691 98.036 381.109 98.036Z" fill="white"/>
</g>
</g>
<g id="Group_13">
<g id="Group_14">
<path id="Vector_19" d="M384.159 97.3513C384.525 95.5998 383.994 93.81 382.729 92.5446C381.733 91.5486 380.409 91 379 91C377.591 91 376.267 91.5485 375.271 92.5446C374.008 93.8072 373.473 95.5957 373.841 97.3514C373.697 97.7713 373.689 98.2201 373.819 98.6564C374.039 99.3975 374.652 99.9448 375.423 100.092C375.512 100.117 375.518 100.092 375.692 100.121C375.74 100.129 375.786 100.136 375.836 100.139V101.499C375.836 101.925 376.087 102.306 376.475 102.469C377.054 102.711 377.962 103 378.999 103C379 103 379 103 379 103C379 103 379 103 379.001 103C380.038 103 380.946 102.711 381.525 102.468C381.913 102.306 382.164 101.925 382.164 101.499V100.137C382.213 100.134 382.258 100.128 382.306 100.121C382.492 100.092 382.499 100.119 382.593 100.087C383.364 99.9321 383.972 99.3806 384.186 98.6377C384.311 98.2075 384.301 97.7651 384.159 97.3513ZM383.511 98.443C383.367 98.9404 382.952 99.308 382.425 99.403C382.138 99.4118 382.178 99.4694 381.882 99.4093C381.665 99.3651 381.461 99.5317 381.461 99.7538V101.499C381.461 101.641 381.379 101.767 381.253 101.82C381.125 101.874 380.952 101.934 380.753 101.998V101.237C380.753 101.043 380.6 100.891 380.406 100.891C380.212 100.891 380.055 101.048 380.055 101.242V102.187C379.835 102.232 379.594 102.262 379.347 102.279V101.237C379.347 101.043 379.194 100.891 379 100.891C378.806 100.891 378.648 101.048 378.648 101.242V102.284C378.402 102.266 378.161 102.227 377.941 102.183V101.237C377.941 101.043 377.788 100.891 377.594 100.891C377.4 100.891 377.242 101.048 377.242 101.242V102.003C377.043 101.939 376.875 101.874 376.747 101.82C376.621 101.767 376.534 101.636 376.534 101.494L376.534 99.7493C376.534 99.5276 376.336 99.3652 376.118 99.4095C375.804 99.4731 375.873 99.4103 375.563 99.4028C375.048 99.3072 374.639 98.9456 374.493 98.456C374.398 98.1368 374.412 97.809 374.533 97.5082C374.56 97.4415 374.566 97.3683 374.549 97.2983C374.187 95.7191 374.67 94.14 375.768 93.0418C376.631 92.1785 377.779 91.6984 379 91.6984C380.221 91.6984 381.368 92.1785 382.232 93.0417C383.35 94.16 383.806 95.7512 383.451 97.2982C383.435 97.3683 383.44 97.4415 383.467 97.5081C383.586 97.8048 383.602 98.1281 383.511 98.443Z" fill="white"/>
</g>
</g>
</g>
</g>
</g>
</g>
<g id="Group_15">
<path id="Vector_20" d="M600.31 133.56C619.243 133.56 634.59 118.212 634.59 99.28C634.59 80.3477 619.243 65 600.31 65C581.378 65 566.03 80.3477 566.03 99.28C566.03 118.212 581.378 133.56 600.31 133.56Z" fill="#7BAAF3"/>
<g id="Group 16037">
<g id="command" clip-path="url(#clip1_1295_1607)">
<g id="Group_16">
<path id="Vector_21" d="M608.41 111.848H591.59C589.143 111.848 587.152 109.857 587.152 107.41V99.2082C587.152 98.9838 587.334 98.802 587.559 98.802C587.783 98.802 587.965 98.9838 587.965 99.2082V107.41C587.965 109.409 589.591 111.035 591.59 111.035H608.41C610.409 111.035 612.035 109.409 612.035 107.41V90.5896C612.035 88.5909 610.409 86.9648 608.41 86.9648H591.59C589.591 86.9648 587.965 88.5909 587.965 90.5896V94.7516C587.965 94.9761 587.783 95.1579 587.559 95.1579C587.334 95.1579 587.152 94.9761 587.152 94.7516V90.5896C587.152 88.143 589.143 86.1523 591.59 86.1523H608.41C610.857 86.1523 612.848 88.143 612.848 90.5896V107.41C612.848 109.857 610.857 111.848 608.41 111.848Z" fill="white"/>
<path id="Vector_22" d="M587.559 97.8147C587.334 97.8147 587.152 97.6329 587.152 97.4085V96.5513C587.152 96.3268 587.334 96.145 587.559 96.145C587.783 96.145 587.965 96.3268 587.965 96.5513V97.4085C587.965 97.6329 587.783 97.8147 587.559 97.8147Z" fill="white"/>
</g>
<g id="Group_17">
<path id="Vector_23" d="M605.339 105.227C605.23 105.227 605.132 105.269 605.06 105.338C604.839 105.187 604.58 105.1 604.302 105.1C603.506 105.1 602.859 105.814 602.859 106.692C602.859 107.57 603.507 108.285 604.302 108.285C604.554 108.285 604.791 108.213 604.998 108.087C605.07 108.199 605.196 108.274 605.339 108.274C605.563 108.274 605.745 108.092 605.745 107.867V105.633C605.745 105.409 605.563 105.227 605.339 105.227H605.339ZM604.302 107.473C603.954 107.473 603.672 107.123 603.672 106.693C603.672 106.263 603.955 105.913 604.302 105.913C604.649 105.913 604.932 106.263 604.932 106.693C604.932 107.123 604.649 107.473 604.302 107.473Z" fill="white"/>
<path id="Vector_24" d="M590.403 105.469C590.641 105.469 590.869 105.561 591.045 105.727C591.208 105.881 591.465 105.874 591.62 105.711C591.774 105.548 591.767 105.291 591.604 105.136C591.276 104.827 590.849 104.656 590.403 104.656C589.427 104.656 588.632 105.471 588.632 106.471C588.632 107.471 589.427 108.285 590.403 108.285C590.849 108.285 591.276 108.115 591.604 107.805C591.767 107.651 591.774 107.394 591.62 107.231C591.466 107.068 591.208 107.06 591.045 107.214C590.869 107.381 590.641 107.472 590.403 107.472C589.874 107.472 589.445 107.023 589.445 106.47C589.445 105.918 589.875 105.468 590.403 105.468V105.469Z" fill="white"/>
<path id="Vector_25" d="M610.962 104.322C610.737 104.322 610.556 104.504 610.556 104.729V105.303C610.371 105.206 610.165 105.152 609.948 105.152C609.165 105.152 608.527 105.855 608.527 106.719C608.527 107.582 609.165 108.285 609.948 108.285C610.205 108.285 610.446 108.209 610.655 108.077C610.729 108.163 610.839 108.218 610.962 108.218C611.186 108.218 611.368 108.036 611.368 107.811V104.729C611.368 104.504 611.186 104.322 610.962 104.322ZM609.948 107.473C609.613 107.473 609.34 107.135 609.34 106.719C609.34 106.303 609.613 105.965 609.948 105.965C610.283 105.965 610.556 106.303 610.556 106.719C610.556 107.135 610.283 107.473 609.948 107.473Z" fill="white"/>
<path id="Vector_26" d="M597.787 105.042C597.521 105.042 597.276 105.137 597.084 105.294C596.893 105.137 596.648 105.042 596.382 105.042C596.224 105.042 596.073 105.076 595.938 105.135C595.868 105.078 595.777 105.042 595.679 105.042C595.454 105.042 595.272 105.224 595.272 105.449V107.879C595.272 108.104 595.454 108.285 595.679 108.285C595.903 108.285 596.085 108.104 596.085 107.879V106.152C596.085 105.988 596.218 105.855 596.382 105.855C596.545 105.855 596.678 105.988 596.678 106.152V107.879C596.678 108.104 596.86 108.285 597.084 108.285C597.309 108.285 597.491 108.104 597.491 107.879V106.152C597.491 105.988 597.624 105.855 597.787 105.855C597.951 105.855 598.084 105.988 598.084 106.152V107.879C598.084 108.104 598.266 108.285 598.49 108.285C598.714 108.285 598.896 108.104 598.896 107.879V106.152C598.896 105.54 598.399 105.042 597.787 105.042Z" fill="white"/>
<path id="Vector_27" d="M601.615 105.042C601.349 105.042 601.104 105.137 600.912 105.294C600.721 105.137 600.476 105.042 600.21 105.042C600.052 105.042 599.901 105.076 599.766 105.135C599.696 105.078 599.605 105.042 599.507 105.042C599.282 105.042 599.101 105.224 599.101 105.449V107.879C599.101 108.104 599.282 108.285 599.507 108.285C599.731 108.285 599.913 108.104 599.913 107.879V106.152C599.913 105.988 600.046 105.855 600.21 105.855C600.373 105.855 600.506 105.988 600.506 106.152V107.879C600.506 108.104 600.688 108.285 600.912 108.285C601.137 108.285 601.319 108.104 601.319 107.879V106.152C601.319 105.988 601.452 105.855 601.615 105.855C601.779 105.855 601.912 105.988 601.912 106.152V107.879C601.912 108.104 602.094 108.285 602.318 108.285C602.543 108.285 602.724 108.104 602.724 107.879V106.152C602.724 105.54 602.227 105.042 601.615 105.042Z" fill="white"/>
<path id="Vector_28" d="M607.269 105.042C607.111 105.042 606.961 105.076 606.825 105.135C606.755 105.078 606.664 105.042 606.566 105.042C606.341 105.042 606.16 105.224 606.16 105.449V107.879C606.16 108.104 606.341 108.285 606.566 108.285C606.79 108.285 606.972 108.104 606.972 107.879V106.152C606.972 105.988 607.105 105.855 607.269 105.855C607.432 105.855 607.565 105.988 607.565 106.152V107.879C607.565 108.104 607.747 108.285 607.972 108.285C608.196 108.285 608.378 108.104 608.378 107.879V106.152C608.378 105.54 607.88 105.042 607.269 105.042Z" fill="white"/>
<path id="Vector_29" d="M593.362 105.042C592.468 105.042 591.741 105.77 591.741 106.664C591.741 107.558 592.468 108.285 593.362 108.285C594.256 108.285 594.984 107.558 594.984 106.664C594.984 105.77 594.256 105.042 593.362 105.042ZM593.362 107.473C592.916 107.473 592.553 107.11 592.553 106.664C592.553 106.218 592.916 105.855 593.362 105.855C593.808 105.855 594.171 106.218 594.171 106.664C594.171 107.11 593.808 107.473 593.362 107.473Z" fill="white"/>
<path id="Vector_30" d="M602.239 94.0671C601.716 94.5901 601.691 95.4164 602.183 95.9084C602.413 96.138 602.72 96.2629 603.051 96.2629C603.071 96.2629 603.09 96.2629 603.11 96.2614C603.451 96.2461 603.776 96.1009 604.024 95.8526C604.332 95.5443 604.351 95.0741 604.302 94.7034H606.899C606.849 95.0751 606.866 95.5494 607.176 95.8592C607.448 96.1308 607.801 96.2685 608.148 96.2685C608.467 96.2685 608.78 96.1512 609.017 95.915C609.26 95.6718 609.386 95.3427 609.37 94.9883C609.355 94.6475 609.21 94.3225 608.961 94.0742C608.65 93.7634 608.175 93.7472 607.803 93.7974V91.2721C607.898 91.2848 608 91.2934 608.104 91.2934C608.405 91.2934 608.725 91.2244 608.954 90.9948C609.203 90.746 609.348 90.4215 609.363 90.0808C609.379 89.7263 609.253 89.3973 609.01 89.154C608.518 88.6619 607.692 88.6868 607.169 89.2099C606.859 89.5201 606.842 89.9939 606.892 90.3656H604.307C604.358 89.9929 604.343 89.5151 604.031 89.2028C603.782 88.9539 603.458 88.8087 603.117 88.794C602.762 88.7787 602.433 88.9037 602.19 89.1469C601.947 89.3901 601.821 89.7192 601.837 90.0737C601.852 90.4144 601.998 90.7394 602.246 90.9877C602.475 91.2173 602.795 91.2863 603.096 91.2863C603.225 91.2863 603.351 91.2736 603.465 91.2553V93.8005C603.085 93.739 602.569 93.737 602.239 94.0671H602.239ZM603.45 95.2777C603.345 95.3823 603.212 95.4433 603.074 95.4494C602.95 95.4549 602.837 95.4138 602.757 95.3336C602.582 95.1584 602.607 94.8476 602.813 94.6414C602.855 94.5998 602.951 94.5815 603.072 94.5815C603.193 94.5815 603.329 94.5988 603.463 94.6282C603.523 94.9004 603.532 95.1955 603.449 95.2777H603.45ZM604.278 93.8909V91.1776H606.991V93.8909H604.278ZM608.387 94.6485C608.492 94.7531 608.553 94.8867 608.559 95.0243C608.565 95.1482 608.523 95.261 608.443 95.3407C608.268 95.5159 607.957 95.491 607.751 95.2848C607.669 95.2026 607.678 94.907 607.738 94.6353C608.01 94.5754 608.305 94.5663 608.387 94.6485ZM607.744 89.7842C607.95 89.578 608.261 89.5531 608.436 89.7283C608.516 89.8086 608.557 89.9208 608.552 90.0447C608.546 90.1823 608.485 90.3154 608.38 90.4205C608.298 90.5028 608.002 90.4936 607.73 90.4337C607.671 90.164 607.662 89.866 607.744 89.7842ZM602.82 90.4139C602.716 90.3093 602.655 90.1757 602.649 90.0381C602.643 89.9142 602.684 89.8015 602.764 89.7212C602.84 89.6456 602.944 89.6049 603.059 89.6049H603.081C603.219 89.611 603.352 89.672 603.457 89.7766C603.539 89.8589 603.53 90.1544 603.47 90.4261C603.198 90.486 602.903 90.4951 602.821 90.4129L602.82 90.4139Z" fill="white"/>
</g>
</g>
</g>
</g>
</g>
<line id="Line 499" opacity="0.4" x1="46.5" y1="99.5205" x2="46.5" y2="134.521" stroke="white" stroke-linecap="round" stroke-linejoin="round" stroke-dasharray="6 6"/>
<line id="Line 503" opacity="0.4" x1="270.5" y1="99.5205" x2="270.5" y2="134.521" stroke="white" stroke-linecap="round" stroke-linejoin="round" stroke-dasharray="6 6"/>
<line id="Line 504" opacity="0.4" x1="491.5" y1="99.5205" x2="491.5" y2="134.521" stroke="white" stroke-linecap="round" stroke-linejoin="round" stroke-dasharray="6 6"/>
<line id="Line 505" opacity="0.4" x1="711.5" y1="99.5205" x2="711.5" y2="134.521" stroke="white" stroke-linecap="round" stroke-linejoin="round" stroke-dasharray="6 6"/>
<line id="Line 500" opacity="0.4" x1="157.5" y1="12.5" x2="157.5" y2="47.5" stroke="white" stroke-linecap="round" stroke-linejoin="round" stroke-dasharray="6 6"/>
<line id="Line 501" opacity="0.4" x1="379.5" y1="12.5" x2="379.5" y2="47.5" stroke="white" stroke-linecap="round" stroke-linejoin="round" stroke-dasharray="6 6"/>
<line id="Line 502" opacity="0.4" x1="594.5" y1="12.5" x2="594.5" y2="47.5" stroke="white" stroke-linecap="round" stroke-linejoin="round" stroke-dasharray="6 6"/>
</g>
<g id="Group 16048">
<path id="Vector_31" d="M712.767 4.26237C738.05 6.31881 756.879 28.4819 754.822 53.765C752.766 79.0481 730.603 97.8771 705.319 95.8206C680.036 93.7642 661.207 71.6011 663.264 46.318C665.32 21.0349 687.483 2.20593 712.767 4.26237Z" fill="#476EA5" stroke="#476EA5"/>
<path id="Vector_32" d="M743.115 52.2798C744.65 33.4098 730.597 16.8684 711.727 15.3336C692.857 13.7988 676.315 27.8517 674.781 46.7217C673.246 65.5918 687.299 82.1331 706.169 83.668C725.039 85.2028 741.58 71.1498 743.115 52.2798Z" fill="#7BAAF3"/>
<path id="Shape_29_" d="M701.55 54.7542C702.307 54.8048 703.019 55.1329 703.55 55.6757C703.74 55.9049 703.81 56.0016 703.867 56.0852C704.243 56.584 704.655 57.0554 705.098 57.4959C705.511 57.9501 705.972 58.357 706.474 58.7094C707.05 59.1872 707.457 59.8378 707.634 60.5647C707.113 60.847 706.85 61.4465 706.995 62.021C707.139 62.5955 707.655 62.9985 708.248 63H715.182C715.716 63.0016 716.197 62.6756 716.392 62.1787C716.588 61.6819 716.459 61.1158 716.067 60.7529C716.171 60.5773 716.284 60.3966 716.41 60.2068C717.349 58.7961 717.349 57.827 717.349 56.0657V49.5648C717.349 48.9237 716.995 48.3351 716.429 48.0344C715.862 47.7337 715.176 47.7701 714.645 48.129C714.49 47.6737 714.15 47.3044 713.71 47.1104C713.27 46.9165 712.768 46.9158 712.327 47.1083C714.127 45.0988 714.382 42.1421 712.954 39.8537C711.526 37.5653 708.758 36.4955 706.162 37.2289C703.566 37.9622 701.767 40.3223 701.747 43.0196C701.728 45.717 703.493 48.103 706.078 48.874L706.075 52.5985C704.639 51.6815 703.451 51.1766 701.642 51.2984C700.739 51.346 700.025 52.0796 700.001 52.9834C699.977 53.8872 700.651 54.6578 701.55 54.7533V54.7542ZM715.182 62.1332H708.248C708.009 62.1332 707.815 61.9391 707.815 61.6998C707.815 61.4605 708.009 61.2664 708.248 61.2664H715.182C715.422 61.2664 715.616 61.4604 715.616 61.6998C715.616 61.9392 715.422 62.1332 715.182 62.1332ZM702.614 43.0639C702.609 40.6909 704.212 38.6157 706.508 38.0198C708.805 37.4239 711.214 38.4583 712.364 40.5342C713.514 42.6101 713.113 45.201 711.389 46.8318C710.84 46.4536 710.121 46.4302 709.548 46.7719V46.547C711.174 45.7439 712.032 43.9272 711.621 42.1613C711.21 40.3954 709.637 39.1451 707.824 39.1428C706.011 39.1406 704.435 40.3869 704.019 42.1518C703.603 43.9167 704.457 45.7355 706.081 46.5426V47.9646C703.999 47.2364 702.608 45.2692 702.614 43.0639ZM706.622 41.807C706.278 42.1348 706.083 42.5887 706.081 43.0639V45.5421C705.266 44.9803 704.78 44.0536 704.781 43.0639C704.777 41.6229 705.787 40.378 707.198 40.0853C708.609 39.7926 710.032 40.5329 710.601 41.8566C711.171 43.1803 710.731 44.722 709.548 45.5455V43.1375C709.567 42.195 708.846 41.4018 707.906 41.3303C707.431 41.3034 706.965 41.4761 706.622 41.807ZM700.885 52.9292C700.938 52.512 701.279 52.1911 701.699 52.1652C703.276 52.0581 704.295 52.4907 705.612 53.3305C705.881 53.4994 706.22 53.509 706.498 53.3557C706.774 53.2032 706.944 52.9132 706.943 52.5985L706.948 43.0639C706.947 42.8263 707.045 42.599 707.217 42.4351C707.389 42.2713 707.621 42.1852 707.858 42.1971C708.335 42.2484 708.694 42.6575 708.681 43.1375V49.9982C708.681 50.2375 708.875 50.4315 709.115 50.4315C709.354 50.4315 709.548 50.2375 709.548 49.9982V48.2646C709.548 47.7859 709.936 47.3978 710.415 47.3978C710.894 47.3978 711.282 47.7859 711.282 48.2646V50.4316C711.282 50.671 711.476 50.865 711.715 50.865C711.954 50.865 712.148 50.671 712.148 50.4316V48.698C712.148 48.2193 712.537 47.8312 713.015 47.8312C713.494 47.8312 713.882 48.2193 713.882 48.698V50.865C713.882 51.1044 714.076 51.2984 714.315 51.2984C714.555 51.2984 714.749 51.1044 714.749 50.865V49.5648C714.749 49.0861 715.137 48.698 715.616 48.698C716.094 48.698 716.482 49.0861 716.482 49.5648V56.0658C716.482 57.7612 716.482 58.5361 715.688 59.7258C715.527 59.9676 715.392 60.1908 715.266 60.4079C715.238 60.4079 715.211 60.3997 715.182 60.3997H708.489C708.266 59.4573 707.737 58.6153 706.985 58.0052C706.528 57.6848 706.108 57.3151 705.732 56.9026C705.317 56.4899 704.931 56.0499 704.575 55.5855C704.509 55.4906 704.432 55.3818 704.219 55.1239C703.547 54.4064 702.63 53.9671 701.649 53.8927C701.173 53.8363 700.832 53.4058 700.885 52.9292Z" fill="white"/>
</g>
<path id="Vector 46" d="M646 95L634.501 68.5C634.501 68.5 645.394 71.6097 651.501 69C657.734 66.3367 663.001 56 663.001 56L674 80C674 80 661.32 75.7964 655.501 79C649.714 82.187 646 95 646 95Z" fill="#476EA5" stroke="#476EA5"/>
</g>
<defs>
<clipPath id="clip0_1295_1607">
<rect width="12" height="12" fill="white" transform="translate(373 91)"/>
</clipPath>
<clipPath id="clip1_1295_1607">
<rect width="26" height="26" fill="white" transform="translate(587 86)"/>
</clipPath>
</defs>
</svg>
